<svg xmlns="http://www.w3.org/2000/svg" viewBox="0 0 256 256" width="100%" height="100%">
  
  <rect x="58" y="42" width="140" height="180" rx="20" fill="#E2E8F0" stroke="#1E293B" stroke-width="4" stroke-linejoin="round" />
  
  
  <rect x="74" y="62" width="108" height="144" rx="8" fill="#FFFFFF" stroke="#1E293B" stroke-width="4" stroke-linejoin="round" />
  
  
  <rect x="98" y="30" width="60" height="28" rx="8" fill="#CBD5E1" stroke="#1E293B" stroke-width="4" stroke-linejoin="round" />
  
  
  <path d="M 106 36 L 150 36 C 153.314 36 156 38.686 156 42 L 156 46 C 156 49.314 153.314 52 150 52 L 106 52 C 102.686 52 100 49.314 100 46 L 100 42 C 100 38.686 102.686 36 106 36 Z" fill="#94A3B8" stroke="#1E293B" stroke-width="4" stroke-linejoin="round" />

  
  <rect x="90" y="86" width="18" height="18" rx="4" fill="#F8FAFC" stroke="#1E293B" stroke-width="3" stroke-linejoin="round" />
  
  <path d="M 93 96 L 98 101 L 106 91" fill="none" stroke="#2D6A4F" stroke-width="4" stroke-linecap="round" stroke-linejoin="round" />
  
  <line x1="120" y1="95" x2="152" y2="95" stroke="#1E293B" stroke-width="3" stroke-linecap="round" />

  
  <rect x="90" y="122" width="18" height="18" rx="4" fill="#F8FAFC" stroke="#1E293B" stroke-width="3" stroke-linejoin="round" />
  
  <path d="M 93 132 L 98 137 L 106 127" fill="none" stroke="#2D6A4F" stroke-width="4" stroke-linecap="round" stroke-linejoin="round" />
  
  <line x1="120" y1="131" x2="152" y2="131" stroke="#1E293B" stroke-width="3" stroke-linecap="round" />

  
  <rect x="90" y="158" width="18" height="18" rx="4" fill="#F8FAFC" stroke="#1E293B" stroke-width="3" stroke-linejoin="round" />
  
  <path d="M 93 168 L 98 173 L 106 163" fill="none" stroke="#2D6A4F" stroke-width="4" stroke-linecap="round" stroke-linejoin="round" />
  
  <line x1="120" y1="167" x2="152" y2="167" stroke="#1E293B" stroke-width="3" stroke-linecap="round" />

  
  <path d="M 184 92 L 228 136 L 202 162 L 158 118 Z" fill="#FBBF24" stroke="#1E293B" stroke-width="4" stroke-linejoin="round" />
  
  
  <path d="M 158 118 L 202 162 L 180 184 L 136 140 Z" fill="#FDE68A" stroke="#1E293B" stroke-width="4" stroke-linejoin="round" />
  
  
  <path d="M 136 140 L 148 152 L 136 164 Z" fill="#1E293B" />
  
  
  <path d="M 184 92 L 194 82 L 220 108 L 210 118 Z" fill="#94A3B8" stroke="#1E293B" stroke-width="4" stroke-linejoin="round" />
  
  
  <path d="M 194 82 L 204 72 C 209 67 217 67 222 72 L 230 80 C 235 85 235 93 230 98 L 220 108 Z" fill="#F472B6" stroke="#1E293B" stroke-width="4" stroke-linejoin="round" />
</svg>